<svg width="28" height="11" viewBox="0 0 28 11" fill="none" xmlns="http://www.w3.org/2000/svg">
<path d="M5.292 10.168C4.46133 10.168 3.68667 9.96733 2.968 9.566C2.25867 9.15533 1.68933 8.572 1.26 7.816C0.830667 7.05067 0.616 6.15 0.616 5.114C0.616 4.08733 0.830667 3.19133 1.26 2.426C1.69867 1.65133 2.282 1.05867 3.01 0.647999C3.738 0.237333 4.52667 0.0319998 5.376 0.0319998C6.02933 0.0319998 6.65 0.158 7.238 0.409999C7.83533 0.652666 8.344 1.03067 8.764 1.544C9.19333 2.048 9.47333 2.67333 9.604 3.42H8.54C8.456 3.01867 8.28333 2.64067 8.022 2.286C7.76067 1.922 7.406 1.628 6.958 1.404C6.51933 1.17067 6.00133 1.054 5.404 1.054C4.648 1.054 3.98533 1.24067 3.416 1.614C2.856 1.98733 2.42667 2.48667 2.128 3.112C1.82933 3.728 1.68 4.39533 1.68 5.114C1.68 5.83267 1.82933 6.5 2.128 7.116C2.42667 7.732 2.85133 8.22667 3.402 8.6C3.962 8.964 4.61533 9.146 5.362 9.146C6.29533 9.146 7.042 8.852 7.602 8.264C8.17133 7.66667 8.49333 6.836 8.568 5.772H5.208V4.848H9.66V10H8.624V8.558H8.47C8.11533 9.09933 7.658 9.50533 7.098 9.776C6.538 10.0373 5.936 10.168 5.292 10.168ZM11.258 0.199999H14.982C15.8873 0.199999 16.6013 0.428666 17.124 0.886C17.6466 1.34333 17.908 1.98267 17.908 2.804C17.908 3.17733 17.8146 3.53667 17.628 3.882C17.4413 4.218 17.1893 4.47467 16.872 4.652V4.82C17.4133 4.97867 17.8426 5.268 18.16 5.688C18.4773 6.09867 18.636 6.62133 18.636 7.256C18.636 8.13333 18.37 8.81 17.838 9.286C17.306 9.762 16.5733 10 15.64 10H11.258V0.199999ZM14.982 4.54C15.57 4.54 16.0273 4.38133 16.354 4.064C16.6806 3.73733 16.844 3.32667 16.844 2.832C16.844 2.33733 16.6806 1.93133 16.354 1.614C16.0273 1.28733 15.57 1.124 14.982 1.124H12.294V4.54H14.982ZM15.668 9.076C16.284 9.076 16.7553 8.91267 17.082 8.586C17.4086 8.25 17.572 7.80667 17.572 7.256C17.572 6.70533 17.4086 6.26667 17.082 5.94C16.7553 5.604 16.284 5.436 15.668 5.436H12.294V9.076H15.668ZM24.1197 0.199999C25.0437 0.199999 25.7764 0.461333 26.3177 0.983999C26.8684 1.49733 27.1437 2.188 27.1437 3.056C27.1437 3.924 26.8684 4.61933 26.3177 5.142C25.7764 5.66467 25.0437 5.926 24.1197 5.926H21.2217V10H20.1857V0.199999H24.1197ZM24.0637 4.988C24.745 4.988 25.249 4.81067 25.5757 4.456C25.9117 4.092 26.0797 3.62533 26.0797 3.056C26.0797 2.48667 25.9117 2.02467 25.5757 1.67C25.249 1.306 24.745 1.124 24.0637 1.124H21.2217V4.988H24.0637Z" fill="#1D1D1B"/>
</svg>
