<svg width="1440" height="64" viewBox="0 0 1440 64" fill="none" xmlns="http://www.w3.org/2000/svg">
<rect opacity="0.4" width="1440" height="64" fill="#1D1D1B"/>
<path d="M236.311 32.1095C236.311 38.001 232.717 40.7862 228.219 40.7862H225.47V37.2512H228.005C230.718 37.2512 232.527 35.7874 232.527 32.1095C232.527 28.4673 230.816 26.6459 227.925 26.6459C225.14 26.6459 223.15 28.3601 223.15 32.038V46.8211H219.401V23.575H223.15V25.5749H223.685C224.935 23.8966 226.782 23.1465 228.71 23.1465C232.851 23.1465 236.311 26.146 236.311 32.1095ZM211.676 30.5738L209.177 30.3238C207.213 30.1453 206.178 29.6097 206.178 28.467C206.178 27.1101 207.499 26.3246 209.391 26.3246C211.354 26.3246 212.604 27.2529 212.711 28.5741H216.317C216.174 25.2176 213.568 23.1465 209.427 23.1465C205.25 23.1465 202.43 25.3604 202.43 28.6099C202.43 31.3237 204.143 33.0733 208.034 33.4662L210.569 33.7161C212.104 33.8588 213.139 34.1802 213.139 35.6443C213.139 36.9656 212.175 37.9296 209.641 37.9296C207.307 37.9296 206.157 36.8702 205.753 35.4502H201.852C202.241 38.6962 204.967 41.2147 209.641 41.2147C214.032 41.2147 216.888 38.8937 216.888 35.4659C216.888 32.4306 214.889 30.8952 211.676 30.5738ZM250.828 35.4502C250.24 36.801 248.835 37.8226 246.841 37.8226C244.093 37.8226 242.058 36.0371 242.058 32.1807C242.058 28.5027 243.95 26.4674 246.877 26.4674C249.483 26.4674 250.983 28.0385 251.125 30.3952H244.378V33.1093H254.802V31.3237C254.802 26.3602 251.518 23.1465 246.841 23.1465C242.486 23.1465 238.309 26.1103 238.309 32.1807C238.309 38.2509 242.486 41.2147 246.841 41.2147C250.825 41.2147 253.666 38.7603 254.548 35.4502H250.828ZM191.738 23.1465C187.632 23.1465 184.562 25.2893 184.205 28.5741H188.239C188.525 27.3603 189.631 26.4676 191.738 26.4676C194.451 26.4676 195.343 27.8962 195.343 29.6456V35.5372C193.808 37.2871 192.023 38.1081 190.238 38.1081C188.382 38.1081 187.097 37.2155 187.097 35.6089C187.097 34.0731 188.096 33.1093 190.024 33.1093H193.023V30.3952H189.917C185.633 30.3952 183.241 32.538 183.241 35.8229C183.241 38.8937 185.562 41.2147 189.382 41.2147C191.524 41.2147 193.416 40.358 194.808 39.3222H195.343V40.7862H199.092V29.2883C199.092 25.039 196.2 23.1465 191.738 23.1465ZM166.305 40.7862H170.053V17.219H166.305V40.7862ZM182.048 23.575H177.479L172.017 30.7526V33.0022L177.621 40.7862H182.262L175.694 31.8593L182.048 23.575ZM317.554 23.575L314.484 30.3952C313.734 32.038 313.021 33.6446 312.806 34.7161H312.27C312.056 33.6446 311.307 32.0736 310.557 30.4312L307.487 23.575H303.346L310.557 39.0366L306.987 46.8211H310.986L321.695 23.575H317.554ZM302.517 23.575H297.947L292.485 30.7526V33.0022L298.09 40.7862H302.731L296.162 31.8593L302.517 23.575ZM279.048 30.5738L276.549 30.3238C274.585 30.1453 273.55 29.6097 273.55 28.467C273.55 27.1101 274.871 26.3246 276.763 26.3246C278.726 26.3246 279.976 27.2529 280.083 28.5741H283.688C283.546 25.2176 280.94 23.1465 276.799 23.1465C272.622 23.1465 269.802 25.3604 269.802 28.6099C269.802 31.3237 271.515 33.0733 275.406 33.4662L277.941 33.7161C279.476 33.8588 280.511 34.1802 280.511 35.6443C280.511 36.9656 279.547 37.9296 277.013 37.9296C274.679 37.9296 273.529 36.8702 273.125 35.4502H269.224C269.613 38.6962 272.339 41.2147 277.013 41.2147C281.404 41.2147 284.26 38.8937 284.26 35.4659C284.26 32.4306 282.261 30.8952 279.048 30.5738ZM286.773 40.7862H290.522V17.219H286.773V40.7862ZM262.055 25.5749H261.52V23.575H257.771V40.7862H261.52V31.7878C261.52 28.717 262.938 26.9315 265.732 26.9315H268.105V23.1465H266.732C264.139 23.1465 263.038 24.1245 262.055 25.5749Z" fill="white"/>
<rect x="1206" y="13" width="70" height="38" fill="#F2F2F2"/>
<path d="M1219.29 37.168C1218.46 37.168 1217.69 36.9673 1216.97 36.566C1216.26 36.1553 1215.69 35.572 1215.26 34.816C1214.83 34.0507 1214.62 33.15 1214.62 32.114C1214.62 31.0873 1214.83 30.1913 1215.26 29.426C1215.7 28.6513 1216.28 28.0587 1217.01 27.648C1217.74 27.2373 1218.53 27.032 1219.38 27.032C1220.03 27.032 1220.65 27.158 1221.24 27.41C1221.84 27.6527 1222.34 28.0307 1222.76 28.544C1223.19 29.048 1223.47 29.6733 1223.6 30.42H1222.54C1222.46 30.0187 1222.28 29.6407 1222.02 29.286C1221.76 28.922 1221.41 28.628 1220.96 28.404C1220.52 28.1707 1220 28.054 1219.4 28.054C1218.65 28.054 1217.99 28.2407 1217.42 28.614C1216.86 28.9873 1216.43 29.4867 1216.13 30.112C1215.83 30.728 1215.68 31.3953 1215.68 32.114C1215.68 32.8327 1215.83 33.5 1216.13 34.116C1216.43 34.732 1216.85 35.2267 1217.4 35.6C1217.96 35.964 1218.62 36.146 1219.36 36.146C1220.3 36.146 1221.04 35.852 1221.6 35.264C1222.17 34.6667 1222.49 33.836 1222.57 32.772H1219.21V31.848H1223.66V37H1222.62V35.558H1222.47C1222.12 36.0993 1221.66 36.5053 1221.1 36.776C1220.54 37.0373 1219.94 37.168 1219.29 37.168ZM1225.26 27.2H1228.98C1229.89 27.2 1230.6 27.4287 1231.12 27.886C1231.65 28.3433 1231.91 28.9827 1231.91 29.804C1231.91 30.1773 1231.81 30.5367 1231.63 30.882C1231.44 31.218 1231.19 31.4747 1230.87 31.652V31.82C1231.41 31.9787 1231.84 32.268 1232.16 32.688C1232.48 33.0987 1232.64 33.6213 1232.64 34.256C1232.64 35.1333 1232.37 35.81 1231.84 36.286C1231.31 36.762 1230.57 37 1229.64 37H1225.26V27.2ZM1228.98 31.54C1229.57 31.54 1230.03 31.3813 1230.35 31.064C1230.68 30.7373 1230.84 30.3267 1230.84 29.832C1230.84 29.3373 1230.68 28.9313 1230.35 28.614C1230.03 28.2873 1229.57 28.124 1228.98 28.124H1226.29V31.54H1228.98ZM1229.67 36.076C1230.28 36.076 1230.76 35.9127 1231.08 35.586C1231.41 35.25 1231.57 34.8067 1231.57 34.256C1231.57 33.7053 1231.41 33.2667 1231.08 32.94C1230.76 32.604 1230.28 32.436 1229.67 32.436H1226.29V36.076H1229.67ZM1238.12 27.2C1239.04 27.2 1239.78 27.4613 1240.32 27.984C1240.87 28.4973 1241.14 29.188 1241.14 30.056C1241.14 30.924 1240.87 31.6193 1240.32 32.142C1239.78 32.6647 1239.04 32.926 1238.12 32.926H1235.22V37H1234.19V27.2H1238.12ZM1238.06 31.988C1238.75 31.988 1239.25 31.8107 1239.58 31.456C1239.91 31.092 1240.08 30.6253 1240.08 30.056C1240.08 29.4867 1239.91 29.0247 1239.58 28.67C1239.25 28.306 1238.75 28.124 1238.06 28.124H1235.22V31.988H1238.06Z" fill="#1D1D1B"/>
<rect width="5.65676" height="1.41419" transform="matrix(-0.707095 0.707119 0.707095 0.707119 1266 29)" fill="#1D1D1B"/>
<rect width="5.65676" height="1.41419" transform="matrix(0.707155 0.707058 0.707155 -0.707058 1259 29.9999)" fill="#1D1D1B"/>
</svg>
