<svg width="64" height="32" viewBox="0 0 64 32" fill="none" xmlns="http://www.w3.org/2000/svg">
<g opacity="0.6">
<path d="M15.336 23.416V25H4.872V23.2C6.6 21.872 7.464 20.576 7.464 19.312C7.464 18.816 7.312 18.224 7.008 17.536H4.032V16.096H6.312C6.024 15.472 5.8 14.896 5.64 14.368C5.48 13.84 5.4 13.272 5.4 12.664C5.4 11.736 5.6 10.912 6 10.192C6.4 9.472 6.968 8.912 7.704 8.512C8.44 8.112 9.288 7.912 10.248 7.912C11.256 7.912 12.12 8.128 12.84 8.56C13.56 8.976 14.112 9.536 14.496 10.24C14.88 10.944 15.096 11.712 15.144 12.544H13.416C13.144 10.608 12.088 9.64 10.248 9.64C9.144 9.64 8.352 9.936 7.872 10.528C7.408 11.12 7.176 11.824 7.176 12.64C7.176 13.184 7.264 13.712 7.44 14.224C7.616 14.72 7.888 15.344 8.256 16.096H13.752V17.536H8.856C9.048 18.112 9.144 18.632 9.144 19.096C9.144 20.6 8.464 21.944 7.104 23.128V23.416H15.336ZM23.4533 25.288C22.2693 25.288 21.2453 25.048 20.3813 24.568C19.5333 24.072 18.8853 23.416 18.4373 22.6C17.9893 21.768 17.7493 20.856 17.7173 19.864H19.4693C19.5653 21.096 19.9973 22.04 20.7653 22.696C21.5333 23.336 22.4293 23.656 23.4533 23.656C24.1573 23.656 24.7973 23.496 25.3733 23.176C25.9493 22.84 26.3973 22.384 26.7173 21.808C27.0533 21.216 27.2213 20.544 27.2213 19.792C27.2213 18.608 26.8453 17.688 26.0933 17.032C25.3413 16.36 24.3093 16.024 22.9973 16.024H21.3653V14.968L25.8053 9.832H18.3173V8.2H27.9413V9.664L23.9813 14.32V14.608C24.9413 14.624 25.7973 14.84 26.5493 15.256C27.3173 15.672 27.9173 16.272 28.3493 17.056C28.7813 17.824 28.9973 18.728 28.9973 19.768C28.9973 20.728 28.7893 21.632 28.3733 22.48C27.9573 23.312 27.3333 23.992 26.5013 24.52C25.6693 25.032 24.6533 25.288 23.4533 25.288ZM38.3777 20.368H30.7937V19L38.3777 8.2H40.1057V18.784H42.7457V20.368H40.1057V25H38.3777V20.368ZM38.3777 18.784V11.152H38.0897C37.9617 11.376 37.7937 11.648 37.5857 11.968L32.8337 18.784H38.3777ZM44.2766 23.672H45.6046V25H44.2766V23.672ZM49.7616 13.608C50.4976 13.608 51.1376 13.7627 51.6816 14.072C52.2362 14.3813 52.6576 14.808 52.9456 15.352C53.2336 15.896 53.3776 16.4987 53.3776 17.16C53.3776 17.704 53.2869 18.2373 53.1056 18.76C52.9242 19.2827 52.6469 19.8267 52.2736 20.392L49.2016 25H47.8256L50.6576 20.76V20.584C50.3696 20.744 49.9802 20.824 49.4896 20.824C48.8069 20.824 48.2042 20.6693 47.6816 20.36C47.1696 20.04 46.7749 19.6187 46.4976 19.096C46.2309 18.5627 46.0976 17.9813 46.0976 17.352C46.0976 16.712 46.2309 16.1093 46.4976 15.544C46.7749 14.968 47.1909 14.504 47.7456 14.152C48.3002 13.7893 48.9722 13.608 49.7616 13.608ZM49.7456 14.76C48.9562 14.76 48.3482 15.0053 47.9216 15.496C47.5056 15.976 47.2976 16.5573 47.2976 17.24C47.2976 17.6667 47.3882 18.072 47.5696 18.456C47.7509 18.8293 48.0229 19.1333 48.3856 19.368C48.7589 19.6027 49.2122 19.72 49.7456 19.72C50.5349 19.72 51.1376 19.4747 51.5536 18.984C51.9696 18.4933 52.1776 17.9067 52.1776 17.224C52.1776 16.5413 51.9696 15.96 51.5536 15.48C51.1376 15 50.5349 14.76 49.7456 14.76ZM58.1678 13.608C58.9038 13.608 59.5438 13.7627 60.0878 14.072C60.6425 14.3813 61.0638 14.808 61.3518 15.352C61.6398 15.896 61.7838 16.4987 61.7838 17.16C61.7838 17.704 61.6931 18.2373 61.5118 18.76C61.3305 19.2827 61.0531 19.8267 60.6798 20.392L57.6078 25H56.2318L59.0638 20.76V20.584C58.7758 20.744 58.3865 20.824 57.8958 20.824C57.2131 20.824 56.6105 20.6693 56.0878 20.36C55.5758 20.04 55.1811 19.6187 54.9038 19.096C54.6371 18.5627 54.5038 17.9813 54.5038 17.352C54.5038 16.712 54.6371 16.1093 54.9038 15.544C55.1811 14.968 55.5971 14.504 56.1518 14.152C56.7065 13.7893 57.3785 13.608 58.1678 13.608ZM58.1518 14.76C57.3625 14.76 56.7545 15.0053 56.3278 15.496C55.9118 15.976 55.7038 16.5573 55.7038 17.24C55.7038 17.6667 55.7945 18.072 55.9758 18.456C56.1571 18.8293 56.4291 19.1333 56.7918 19.368C57.1651 19.6027 57.6185 19.72 58.1518 19.72C58.9411 19.72 59.5438 19.4747 59.9598 18.984C60.3758 18.4933 60.5838 17.9067 60.5838 17.224C60.5838 16.5413 60.3758 15.96 59.9598 15.48C59.5438 15 58.9411 14.76 58.1518 14.76Z" fill="#1D1D1B"/>
<line y1="18" x2="64" y2="18" stroke="#1D1D1B" stroke-width="2"/>
</g>
</svg>
