<svg width="70" height="38" viewBox="0 0 70 38" fill="none" xmlns="http://www.w3.org/2000/svg">
<rect width="70" height="38" fill="#F2F2F2"/>
<path d="M13.292 24.168C12.4613 24.168 11.6867 23.9673 10.968 23.566C10.2587 23.1553 9.68933 22.572 9.26 21.816C8.83067 21.0507 8.616 20.15 8.616 19.114C8.616 18.0873 8.83067 17.1913 9.26 16.426C9.69867 15.6513 10.282 15.0587 11.01 14.648C11.738 14.2373 12.5267 14.032 13.376 14.032C14.0293 14.032 14.65 14.158 15.238 14.41C15.8353 14.6527 16.344 15.0307 16.764 15.544C17.1933 16.048 17.4733 16.6733 17.604 17.42H16.54C16.456 17.0187 16.2833 16.6407 16.022 16.286C15.7607 15.922 15.406 15.628 14.958 15.404C14.5193 15.1707 14.0013 15.054 13.404 15.054C12.648 15.054 11.9853 15.2407 11.416 15.614C10.856 15.9873 10.4267 16.4867 10.128 17.112C9.82933 17.728 9.68 18.3953 9.68 19.114C9.68 19.8327 9.82933 20.5 10.128 21.116C10.4267 21.732 10.8513 22.2267 11.402 22.6C11.962 22.964 12.6153 23.146 13.362 23.146C14.2953 23.146 15.042 22.852 15.602 22.264C16.1713 21.6667 16.4933 20.836 16.568 19.772H13.208V18.848H17.66V24H16.624V22.558H16.47C16.1153 23.0993 15.658 23.5053 15.098 23.776C14.538 24.0373 13.936 24.168 13.292 24.168ZM19.258 14.2H22.982C23.8873 14.2 24.6013 14.4287 25.124 14.886C25.6466 15.3433 25.908 15.9827 25.908 16.804C25.908 17.1773 25.8146 17.5367 25.628 17.882C25.4413 18.218 25.1893 18.4747 24.872 18.652V18.82C25.4133 18.9787 25.8426 19.268 26.16 19.688C26.4773 20.0987 26.636 20.6213 26.636 21.256C26.636 22.1333 26.37 22.81 25.838 23.286C25.306 23.762 24.5733 24 23.64 24H19.258V14.2ZM22.982 18.54C23.57 18.54 24.0273 18.3813 24.354 18.064C24.6806 17.7373 24.844 17.3267 24.844 16.832C24.844 16.3373 24.6806 15.9313 24.354 15.614C24.0273 15.2873 23.57 15.124 22.982 15.124H20.294V18.54H22.982ZM23.668 23.076C24.284 23.076 24.7553 22.9127 25.082 22.586C25.4086 22.25 25.572 21.8067 25.572 21.256C25.572 20.7053 25.4086 20.2667 25.082 19.94C24.7553 19.604 24.284 19.436 23.668 19.436H20.294V23.076H23.668ZM32.1197 14.2C33.0437 14.2 33.7764 14.4613 34.3177 14.984C34.8684 15.4973 35.1437 16.188 35.1437 17.056C35.1437 17.924 34.8684 18.6193 34.3177 19.142C33.7764 19.6647 33.0437 19.926 32.1197 19.926H29.2217V24H28.1857V14.2H32.1197ZM32.0637 18.988C32.745 18.988 33.249 18.8107 33.5757 18.456C33.9117 18.092 34.0797 17.6253 34.0797 17.056C34.0797 16.4867 33.9117 16.0247 33.5757 15.67C33.249 15.306 32.745 15.124 32.0637 15.124H29.2217V18.988H32.0637Z" fill="#1D1D1B"/>
<rect width="5.65676" height="1.41419" transform="matrix(-0.707095 0.707119 0.707095 0.707119 60 16)" fill="#1D1D1B"/>
<rect width="5.65676" height="1.41419" transform="matrix(0.707155 0.707058 0.707155 -0.707058 53 16.9999)" fill="#1D1D1B"/>
</svg>
