<svg width="151" height="14" viewBox="0 0 151 14" fill="none" xmlns="http://www.w3.org/2000/svg">
<path d="M7.21 8.558V10H0.966V8.572C1.40467 8.35733 1.75467 8.09133 2.016 7.774C2.28667 7.45667 2.422 7.09733 2.422 6.696C2.422 6.46267 2.366 6.192 2.254 5.884H0.546V4.75H1.708C1.54933 4.42333 1.428 4.11533 1.344 3.826C1.26 3.53667 1.218 3.22867 1.218 2.902C1.218 2.37 1.33933 1.88933 1.582 1.46C1.82467 1.02133 2.17 0.676 2.618 0.424C3.07533 0.162666 3.60733 0.0319998 4.214 0.0319998C4.82067 0.0319998 5.34333 0.158 5.782 0.409999C6.22067 0.661999 6.55667 0.997999 6.79 1.418C7.02333 1.838 7.154 2.3 7.182 2.804H5.614C5.57667 2.43067 5.44133 2.12267 5.208 1.88C4.984 1.628 4.65267 1.502 4.214 1.502C3.75667 1.502 3.416 1.63733 3.192 1.908C2.968 2.17867 2.856 2.51933 2.856 2.93C2.856 3.21933 2.898 3.49933 2.982 3.77C3.07533 4.03133 3.21067 4.358 3.388 4.75H6.342V5.884H3.78C3.81733 6.03333 3.836 6.206 3.836 6.402C3.836 7.13933 3.50467 7.788 2.842 8.348V8.558H7.21ZM11.9737 10.168C11.2644 10.168 10.6531 10.0233 10.1397 9.734C9.63572 9.44467 9.24839 9.062 8.97772 8.586C8.71639 8.10067 8.57172 7.57333 8.54372 7.004H10.1397C10.1771 7.564 10.3684 7.98867 10.7137 8.278C11.0684 8.56733 11.4884 8.712 11.9737 8.712C12.4684 8.712 12.8837 8.544 13.2197 8.208C13.5557 7.872 13.7237 7.42867 13.7237 6.878C13.7237 6.33667 13.5464 5.90733 13.1917 5.59C12.8464 5.27267 12.3377 5.114 11.6657 5.114H10.6297V3.938L12.7857 1.656H8.93572V0.199999H14.7457V1.488L12.7157 3.672V3.882C13.2104 3.92867 13.6537 4.08267 14.0457 4.344C14.4377 4.596 14.7457 4.94133 14.9697 5.38C15.2031 5.81867 15.3197 6.318 15.3197 6.878C15.3197 7.438 15.1937 7.97 14.9417 8.474C14.6991 8.978 14.3257 9.38867 13.8217 9.706C13.3177 10.014 12.7017 10.168 11.9737 10.168ZM19.793 10.168C19.121 10.168 18.5377 10.028 18.043 9.748C17.5484 9.45867 17.1704 9.08067 16.909 8.614C16.6477 8.14733 16.503 7.63867 16.475 7.088H18.071C18.1177 7.58267 18.3137 7.97467 18.659 8.264C19.0137 8.55333 19.4104 8.698 19.849 8.698C20.3157 8.698 20.717 8.52067 21.053 8.166C21.389 7.81133 21.557 7.30267 21.557 6.64C21.557 6.024 21.3984 5.53867 21.081 5.184C20.773 4.82933 20.3764 4.652 19.891 4.652C19.5084 4.652 19.177 4.75 18.897 4.946C18.6264 5.13267 18.4304 5.366 18.309 5.646H16.769L17.077 0.199999H22.369V1.684H18.533L18.379 3.868H18.603C18.8084 3.644 19.0604 3.476 19.359 3.364C19.667 3.252 19.9937 3.196 20.339 3.196C20.8804 3.196 21.3657 3.336 21.795 3.616C22.2337 3.88667 22.5744 4.27867 22.817 4.792C23.0597 5.296 23.181 5.87933 23.181 6.542C23.181 7.214 23.0457 7.82533 22.775 8.376C22.5044 8.92667 22.1124 9.36533 21.599 9.692C21.0857 10.0093 20.4837 10.168 19.793 10.168ZM24.2566 8.32H25.9366V10H24.2566V8.32ZM29.7295 0.0319998C30.4015 0.0319998 30.9849 0.176666 31.4795 0.465999C31.9742 0.746 32.3522 1.12867 32.6135 1.614C32.8749 2.09 33.0055 2.61733 33.0055 3.196C33.0055 3.672 32.9215 4.134 32.7535 4.582C32.5949 5.03 32.3475 5.51067 32.0115 6.024L29.3795 10H27.5875L29.9255 6.472V6.248C29.7855 6.32267 29.5989 6.36 29.3655 6.36C28.7589 6.36 28.2269 6.22467 27.7695 5.954C27.3215 5.674 26.9762 5.30533 26.7335 4.848C26.5002 4.38133 26.3835 3.87733 26.3835 3.336C26.3835 2.76667 26.5095 2.23 26.7615 1.726C27.0229 1.222 27.4055 0.815999 27.9095 0.508C28.4135 0.190666 29.0202 0.0319998 29.7295 0.0319998ZM29.7015 1.502C29.1602 1.502 28.7402 1.67467 28.4415 2.02C28.1522 2.356 28.0075 2.76667 28.0075 3.252C28.0075 3.728 28.1522 4.13867 28.4415 4.484C28.7402 4.82 29.1602 4.988 29.7015 4.988C30.2429 4.988 30.6629 4.82 30.9615 4.484C31.2602 4.13867 31.4095 3.728 31.4095 3.252C31.4095 2.76667 31.2602 2.356 30.9615 2.02C30.6629 1.67467 30.2429 1.502 29.7015 1.502ZM37.3174 0.0319998C37.9894 0.0319998 38.5728 0.176666 39.0674 0.465999C39.5621 0.746 39.9401 1.12867 40.2014 1.614C40.4628 2.09 40.5934 2.61733 40.5934 3.196C40.5934 3.672 40.5094 4.134 40.3414 4.582C40.1828 5.03 39.9354 5.51067 39.5994 6.024L36.9674 10H35.1754L37.5134 6.472V6.248C37.3734 6.32267 37.1868 6.36 36.9534 6.36C36.3468 6.36 35.8148 6.22467 35.3574 5.954C34.9094 5.674 34.5641 5.30533 34.3214 4.848C34.0881 4.38133 33.9714 3.87733 33.9714 3.336C33.9714 2.76667 34.0974 2.23 34.3494 1.726C34.6108 1.222 34.9934 0.815999 35.4974 0.508C36.0014 0.190666 36.6081 0.0319998 37.3174 0.0319998ZM37.2894 1.502C36.7481 1.502 36.3281 1.67467 36.0294 2.02C35.7401 2.356 35.5954 2.76667 35.5954 3.252C35.5954 3.728 35.7401 4.13867 36.0294 4.484C36.3281 4.82 36.7481 4.988 37.2894 4.988C37.8308 4.988 38.2508 4.82 38.5494 4.484C38.8481 4.13867 38.9974 3.728 38.9974 3.252C38.9974 2.76667 38.8481 2.356 38.5494 2.02C38.2508 1.67467 37.8308 1.502 37.2894 1.502ZM44.8735 5.324H49.6335V6.276H44.8735V5.324ZM57.267 10.168C56.5763 10.168 55.979 10.028 55.475 9.748C54.9803 9.45867 54.6023 9.076 54.341 8.6C54.0797 8.11467 53.9397 7.58267 53.921 7.004H54.943C54.999 7.72267 55.251 8.27333 55.699 8.656C56.147 9.02933 56.6697 9.216 57.267 9.216C57.6777 9.216 58.051 9.12267 58.387 8.936C58.723 8.74 58.9843 8.474 59.171 8.138C59.367 7.79267 59.465 7.40067 59.465 6.962C59.465 6.27133 59.2457 5.73467 58.807 5.352C58.3683 4.96 57.7663 4.764 57.001 4.764H56.049V4.148L58.639 1.152H54.271V0.199999H59.885V1.054L57.575 3.77V3.938C58.135 3.94733 58.6343 4.07333 59.073 4.316C59.521 4.55867 59.871 4.90867 60.123 5.366C60.375 5.814 60.501 6.34133 60.501 6.948C60.501 7.508 60.3797 8.03533 60.137 8.53C59.8943 9.01533 59.5303 9.412 59.045 9.72C58.5597 10.0187 57.967 10.168 57.267 10.168ZM68.5031 0.199999C69.8658 0.199999 70.9158 0.638666 71.6531 1.516C72.3998 2.39333 72.7731 3.588 72.7731 5.1C72.7731 6.612 72.3998 7.80667 71.6531 8.684C70.9158 9.56133 69.8658 10 68.5031 10H64.9611V0.199999H68.5031ZM68.5031 9.076C69.5298 9.076 70.3184 8.71667 70.8691 7.998C71.4291 7.27933 71.7091 6.31333 71.7091 5.1C71.7091 3.88667 71.4291 2.92067 70.8691 2.202C70.3184 1.48333 69.5298 1.124 68.5031 1.124H65.9971V9.076H68.5031ZM77.2686 10.168C76.5966 10.168 76.0086 10.0187 75.5046 9.72C75.01 9.412 74.6273 8.992 74.3566 8.46C74.0953 7.928 73.9646 7.326 73.9646 6.654C73.9646 5.982 74.0953 5.37533 74.3566 4.834C74.618 4.29267 74.996 3.868 75.4906 3.56C75.9946 3.24267 76.5826 3.084 77.2546 3.084C77.8706 3.084 78.412 3.21933 78.8786 3.49C79.3546 3.75133 79.7233 4.11533 79.9846 4.582C80.246 5.03933 80.3766 5.562 80.3766 6.15V6.934H75.0006C75.0566 7.662 75.2853 8.222 75.6866 8.614C76.0973 8.99667 76.6246 9.188 77.2686 9.188C78.2486 9.188 78.9066 8.754 79.2426 7.886H80.2786C80.1013 8.586 79.7513 9.14133 79.2286 9.552C78.7153 9.96267 78.062 10.168 77.2686 10.168ZM79.3546 6.052C79.364 5.492 79.182 5.02067 78.8086 4.638C78.4446 4.246 77.9266 4.05 77.2546 4.05C76.6573 4.05 76.1533 4.22733 75.7426 4.582C75.3413 4.92733 75.1033 5.41733 75.0286 6.052H79.3546ZM80.8614 3.252H81.9954L83.9134 8.404C83.9974 8.64667 84.0534 8.81 84.0814 8.894H84.2354C84.2634 8.81 84.3194 8.64667 84.4034 8.404L86.3214 3.252H87.4554L84.8794 10H83.4374L80.8614 3.252ZM88.4471 0.62H89.6091V1.782H88.4471V0.62ZM88.5171 3.252H89.5391V10H88.5171V3.252ZM94.2498 10.168C93.5964 10.168 93.0178 10.0187 92.5138 9.72C92.0098 9.412 91.6178 8.992 91.3378 8.46C91.0578 7.91867 90.9178 7.30733 90.9178 6.626C90.9178 5.94467 91.0578 5.338 91.3378 4.806C91.6178 4.26467 92.0098 3.84467 92.5138 3.546C93.0178 3.238 93.5964 3.084 94.2498 3.084C95.0338 3.084 95.6918 3.294 96.2238 3.714C96.7558 4.134 97.0871 4.69867 97.2178 5.408H96.1958C96.0744 5.00667 95.8458 4.68467 95.5098 4.442C95.1831 4.19 94.7631 4.064 94.2498 4.064C93.5684 4.064 93.0131 4.29267 92.5838 4.75C92.1544 5.20733 91.9398 5.83267 91.9398 6.626C91.9398 7.438 92.1591 8.068 92.5978 8.516C93.0364 8.964 93.5871 9.188 94.2498 9.188C94.7631 9.188 95.1831 9.06667 95.5098 8.824C95.8458 8.572 96.0744 8.24533 96.1958 7.844H97.2178C97.0871 8.55333 96.7558 9.118 96.2238 9.538C95.6918 9.958 95.0338 10.168 94.2498 10.168ZM101.687 10.168C101.015 10.168 100.427 10.0187 99.9226 9.72C99.4279 9.412 99.0453 8.992 98.7746 8.46C98.5133 7.928 98.3826 7.326 98.3826 6.654C98.3826 5.982 98.5133 5.37533 98.7746 4.834C99.0359 4.29267 99.4139 3.868 99.9086 3.56C100.413 3.24267 101.001 3.084 101.673 3.084C102.289 3.084 102.83 3.21933 103.297 3.49C103.773 3.75133 104.141 4.11533 104.403 4.582C104.664 5.03933 104.795 5.562 104.795 6.15V6.934H99.4186C99.4746 7.662 99.7033 8.222 100.105 8.614C100.515 8.99667 101.043 9.188 101.687 9.188C102.667 9.188 103.325 8.754 103.661 7.886H104.697C104.519 8.586 104.169 9.14133 103.647 9.552C103.133 9.96267 102.48 10.168 101.687 10.168ZM103.773 6.052C103.782 5.492 103.6 5.02067 103.227 4.638C102.863 4.246 102.345 4.05 101.673 4.05C101.075 4.05 100.571 4.22733 100.161 4.582C99.7593 4.92733 99.5213 5.41733 99.4466 6.052H103.773ZM108.687 10.168C107.828 10.168 107.147 9.96733 106.643 9.566C106.139 9.15533 105.864 8.628 105.817 7.984H106.867C106.923 8.33867 107.11 8.63267 107.427 8.866C107.754 9.09 108.178 9.202 108.701 9.202C109.812 9.202 110.367 8.81 110.367 8.026C110.367 7.67133 110.255 7.42867 110.031 7.298C109.816 7.158 109.508 7.06933 109.107 7.032L108.127 6.948C106.764 6.836 106.083 6.234 106.083 5.142C106.083 4.51667 106.316 4.01733 106.783 3.644C107.25 3.27067 107.861 3.084 108.617 3.084C109.373 3.084 109.97 3.25667 110.409 3.602C110.857 3.938 111.118 4.42333 111.193 5.058H110.157C110.11 4.74067 109.952 4.49333 109.681 4.316C109.41 4.13867 109.06 4.05 108.631 4.05C108.174 4.05 107.805 4.14333 107.525 4.33C107.245 4.50733 107.105 4.76867 107.105 5.114C107.105 5.41267 107.217 5.63667 107.441 5.786C107.674 5.93533 108.01 6.024 108.449 6.052L109.303 6.122C109.984 6.16867 110.502 6.33667 110.857 6.626C111.212 6.91533 111.389 7.37733 111.389 8.012C111.389 8.656 111.151 9.17867 110.675 9.58C110.208 9.972 109.546 10.168 108.687 10.168ZM112.659 10.504H112.855C113.042 10.504 113.135 10.4153 113.135 10.238V10H112.645V8.838H113.807V10.28C113.807 10.5693 113.723 10.7793 113.555 10.91C113.387 11.05 113.177 11.12 112.925 11.12H112.659V10.504ZM119.776 1.544H119.608L117.83 2.58V1.502L119.972 0.199999H120.798V10H119.776V1.544ZM127.711 9.132L124.967 3.252H126.129L127.991 7.326L128.187 7.774H128.341L128.523 7.326L130.413 3.252H131.561L127.025 13.08H125.863L127.711 9.132ZM135.237 10.168C134.565 10.168 133.977 10.0187 133.473 9.72C132.979 9.412 132.596 8.992 132.325 8.46C132.064 7.928 131.933 7.326 131.933 6.654C131.933 5.982 132.064 5.37533 132.325 4.834C132.587 4.29267 132.965 3.868 133.459 3.56C133.963 3.24267 134.551 3.084 135.223 3.084C135.839 3.084 136.381 3.21933 136.847 3.49C137.323 3.75133 137.692 4.11533 137.953 4.582C138.215 5.03933 138.345 5.562 138.345 6.15V6.934H132.969C133.025 7.662 133.254 8.222 133.655 8.614C134.066 8.99667 134.593 9.188 135.237 9.188C136.217 9.188 136.875 8.754 137.211 7.886H138.247C138.07 8.586 137.72 9.14133 137.197 9.552C136.684 9.96267 136.031 10.168 135.237 10.168ZM137.323 6.052C137.333 5.492 137.151 5.02067 136.777 4.638C136.413 4.246 135.895 4.05 135.223 4.05C134.626 4.05 134.122 4.22733 133.711 4.582C133.31 4.92733 133.072 5.41733 132.997 6.052H137.323ZM142.574 3.084C143.414 3.084 144.067 3.27533 144.534 3.658C145.01 4.04067 145.248 4.624 145.248 5.408V10H144.226V9.286H144.072C143.839 9.538 143.521 9.748 143.12 9.916C142.728 10.084 142.317 10.168 141.888 10.168C141.085 10.168 140.474 9.98133 140.054 9.608C139.643 9.22533 139.438 8.73067 139.438 8.124C139.438 7.47067 139.643 6.962 140.054 6.598C140.474 6.22467 141.067 6.038 141.832 6.038H144.226V5.464C144.226 5.03467 144.086 4.694 143.806 4.442C143.535 4.19 143.115 4.064 142.546 4.064C142.005 4.064 141.585 4.18067 141.286 4.414C140.987 4.638 140.815 4.95533 140.768 5.366H139.718C139.793 4.666 140.082 4.11067 140.586 3.7C141.09 3.28933 141.753 3.084 142.574 3.084ZM142.028 9.23C142.924 9.23 143.657 8.84267 144.226 8.068V6.906H141.874C141.417 6.906 141.071 7.004 140.838 7.2C140.614 7.396 140.502 7.68067 140.502 8.054C140.502 8.446 140.637 8.74 140.908 8.936C141.188 9.132 141.561 9.23 142.028 9.23ZM146.814 3.252H147.836V4.19H147.99C148.335 3.49933 148.89 3.154 149.656 3.154H150.552V4.176H149.558C148.988 4.176 148.559 4.358 148.27 4.722C147.98 5.086 147.836 5.59467 147.836 6.248V10H146.814V3.252Z" fill="#1D1D1B"/>
</svg>
