<svg width="62" height="13" viewBox="0 0 62 13" fill="none" xmlns="http://www.w3.org/2000/svg">
<path d="M5.008 0.799999C6.56533 0.799999 7.76533 1.30133 8.608 2.304C9.46133 3.30667 9.888 4.672 9.888 6.4C9.888 8.128 9.46133 9.49333 8.608 10.496C7.76533 11.4987 6.56533 12 5.008 12H0.96V0.799999H5.008ZM5.008 10.944C6.18133 10.944 7.08267 10.5333 7.712 9.712C8.352 8.89067 8.672 7.78667 8.672 6.4C8.672 5.01333 8.352 3.90933 7.712 3.088C7.08267 2.26667 6.18133 1.856 5.008 1.856H2.144V10.944H5.008ZM15.0258 12.192C14.2578 12.192 13.5858 12.0213 13.0098 11.68C12.4444 11.328 12.0071 10.848 11.6978 10.24C11.3991 9.632 11.2498 8.944 11.2498 8.176C11.2498 7.408 11.3991 6.71467 11.6978 6.096C11.9964 5.47733 12.4284 4.992 12.9938 4.64C13.5698 4.27733 14.2418 4.096 15.0098 4.096C15.7138 4.096 16.3324 4.25067 16.8658 4.56C17.4098 4.85867 17.8311 5.27467 18.1298 5.808C18.4284 6.33067 18.5778 6.928 18.5778 7.6V8.496H12.4338C12.4978 9.328 12.7591 9.968 13.2178 10.416C13.6871 10.8533 14.2898 11.072 15.0258 11.072C16.1458 11.072 16.8978 10.576 17.2818 9.584H18.4658C18.2631 10.384 17.8631 11.0187 17.2658 11.488C16.6791 11.9573 15.9324 12.192 15.0258 12.192ZM17.4098 7.488C17.4204 6.848 17.2124 6.30933 16.7858 5.872C16.3698 5.424 15.7778 5.2 15.0098 5.2C14.3271 5.2 13.7511 5.40267 13.2818 5.808C12.8231 6.20267 12.5511 6.76267 12.4658 7.488H17.4098ZM23.6984 12.192C22.9517 12.192 22.2904 12.0213 21.7144 11.68C21.1384 11.328 20.6904 10.848 20.3704 10.24C20.0504 9.62133 19.8904 8.92267 19.8904 8.144C19.8904 7.36533 20.0504 6.672 20.3704 6.064C20.6904 5.44533 21.1384 4.96533 21.7144 4.624C22.2904 4.272 22.9517 4.096 23.6984 4.096C24.5944 4.096 25.3464 4.336 25.9544 4.816C26.5624 5.296 26.941 5.94133 27.0904 6.752H25.9224C25.7837 6.29333 25.5224 5.92533 25.1384 5.648C24.765 5.36 24.285 5.216 23.6984 5.216C22.9197 5.216 22.285 5.47733 21.7944 6C21.3037 6.52267 21.0584 7.23733 21.0584 8.144C21.0584 9.072 21.309 9.792 21.8104 10.304C22.3117 10.816 22.941 11.072 23.6984 11.072C24.285 11.072 24.765 10.9333 25.1384 10.656C25.5224 10.368 25.7837 9.99467 25.9224 9.536H27.0904C26.941 10.3467 26.5624 10.992 25.9544 11.472C25.3464 11.952 24.5944 12.192 23.6984 12.192ZM32.0493 11.152L35.7293 6.704C36.3266 5.968 36.7426 5.392 36.9773 4.976C37.2119 4.54933 37.3293 4.10667 37.3293 3.648C37.3293 3.11467 37.1693 2.66667 36.8493 2.304C36.5293 1.94133 36.0386 1.76 35.3773 1.76C34.7159 1.76 34.1933 1.95733 33.8093 2.352C33.4359 2.74667 33.2333 3.28 33.2013 3.952H32.0333C32.0439 3.46133 32.1559 2.96 32.3693 2.448C32.5826 1.936 32.9399 1.504 33.4413 1.152C33.9426 0.789333 34.5879 0.608 35.3773 0.608C36.0706 0.608 36.6573 0.752 37.1373 1.04C37.6173 1.31733 37.9693 1.68 38.1933 2.128C38.4279 2.56533 38.5453 3.03467 38.5453 3.536C38.5453 4.00533 38.4546 4.45333 38.2733 4.88C38.0919 5.30667 37.8679 5.70133 37.6013 6.064C37.3453 6.416 36.9826 6.87467 36.5133 7.44L36.1773 7.84L33.7773 10.752V10.944H38.6733V12H32.0493V11.152ZM44.146 12.192C43.3247 12.192 42.5993 11.968 41.97 11.52C41.3407 11.072 40.8447 10.4107 40.482 9.536C40.13 8.66133 39.954 7.616 39.954 6.4C39.954 5.184 40.13 4.13867 40.482 3.264C40.8447 2.38933 41.3407 1.728 41.97 1.28C42.5993 0.832 43.3247 0.608 44.146 0.608C44.9673 0.608 45.6927 0.832 46.322 1.28C46.9513 1.728 47.442 2.38933 47.794 3.264C48.1567 4.13867 48.338 5.184 48.338 6.4C48.338 7.616 48.1567 8.66133 47.794 9.536C47.442 10.4107 46.9513 11.072 46.322 11.52C45.6927 11.968 44.9673 12.192 44.146 12.192ZM44.146 11.024C45.0527 11.024 45.7727 10.624 46.306 9.824C46.85 9.01333 47.122 7.872 47.122 6.4C47.122 4.928 46.85 3.792 46.306 2.992C45.7727 2.18133 45.0527 1.776 44.146 1.776C43.5593 1.776 43.042 1.95733 42.594 2.32C42.146 2.672 41.794 3.19467 41.538 3.888C41.2927 4.58133 41.17 5.41867 41.17 6.4C41.17 7.38133 41.2927 8.21867 41.538 8.912C41.794 9.60533 42.146 10.1333 42.594 10.496C43.042 10.848 43.5593 11.024 44.146 11.024ZM51.5589 2.336H51.3669L49.3349 3.52V2.288L51.7829 0.799999H52.7269V12H51.5589V2.336ZM57.8631 0.608C58.5991 0.608 59.2391 0.762666 59.7831 1.072C60.3378 1.38133 60.7591 1.808 61.0471 2.352C61.3351 2.896 61.4791 3.49867 61.4791 4.16C61.4791 4.704 61.3885 5.23733 61.2071 5.76C61.0258 6.28267 60.7485 6.82667 60.3751 7.392L57.3031 12H55.9271L58.7591 7.76V7.584C58.4711 7.744 58.0818 7.824 57.5911 7.824C56.9085 7.824 56.3058 7.66933 55.7831 7.36C55.2711 7.04 54.8765 6.61867 54.5991 6.096C54.3325 5.56267 54.1991 4.98133 54.1991 4.352C54.1991 3.712 54.3325 3.10933 54.5991 2.544C54.8765 1.968 55.2925 1.504 55.8471 1.152C56.4018 0.789333 57.0738 0.608 57.8631 0.608ZM57.8471 1.76C57.0578 1.76 56.4498 2.00533 56.0231 2.496C55.6071 2.976 55.3991 3.55733 55.3991 4.24C55.3991 4.66667 55.4898 5.072 55.6711 5.456C55.8525 5.82933 56.1245 6.13333 56.4871 6.368C56.8605 6.60267 57.3138 6.72 57.8471 6.72C58.6365 6.72 59.2391 6.47467 59.6551 5.984C60.0711 5.49333 60.2791 4.90667 60.2791 4.224C60.2791 3.54133 60.0711 2.96 59.6551 2.48C59.2391 2 58.6365 1.76 57.8471 1.76Z" fill="white"/>
</svg>
