<svg width="127" height="85" viewBox="0 0 127 85" fill="none" xmlns="http://www.w3.org/2000/svg">
<path d="M60.665 5.468H60.105L56.297 7.624V3.284L61.337 0.399999L64.977 0.399999V20H60.665L60.665 5.468ZM75.932 20.336C74.476 20.336 73.16 19.972 71.984 19.244C70.808 18.4973 69.8654 17.368 69.156 15.856C68.4654 14.3253 68.12 12.44 68.12 10.2C68.12 7.96 68.4654 6.084 69.156 4.572C69.8654 3.04133 70.808 1.912 71.984 1.184C73.16 0.437333 74.476 0.0639997 75.932 0.0639997C77.388 0.0639997 78.704 0.437333 79.88 1.184C81.056 1.912 81.9894 3.04133 82.68 4.572C83.3894 6.084 83.744 7.96 83.744 10.2C83.744 12.44 83.3894 14.3253 82.68 15.856C81.9894 17.368 81.056 18.4973 79.88 19.244C78.704 19.972 77.388 20.336 75.932 20.336ZM75.932 16.192C76.996 16.192 77.836 15.716 78.452 14.764C79.068 13.7933 79.376 12.272 79.376 10.2C79.376 8.128 79.068 6.616 78.452 5.664C77.836 4.69333 76.996 4.208 75.932 4.208C74.868 4.208 74.028 4.69333 73.412 5.664C72.796 6.616 72.488 8.128 72.488 10.2C72.488 12.272 72.796 13.7933 73.412 14.764C74.028 15.716 74.868 16.192 75.932 16.192ZM94.143 20.336C92.687 20.336 91.371 19.972 90.195 19.244C89.019 18.4973 88.0763 17.368 87.367 15.856C86.6763 14.3253 86.331 12.44 86.331 10.2C86.331 7.96 86.6763 6.084 87.367 4.572C88.0763 3.04133 89.019 1.912 90.195 1.184C91.371 0.437333 92.687 0.0639997 94.143 0.0639997C95.599 0.0639997 96.915 0.437333 98.091 1.184C99.267 1.912 100.2 3.04133 100.891 4.572C101.6 6.084 101.955 7.96 101.955 10.2C101.955 12.44 101.6 14.3253 100.891 15.856C100.2 17.368 99.267 18.4973 98.091 19.244C96.915 19.972 95.599 20.336 94.143 20.336ZM94.143 16.192C95.207 16.192 96.047 15.716 96.663 14.764C97.279 13.7933 97.587 12.272 97.587 10.2C97.587 8.128 97.279 6.616 96.663 5.664C96.047 4.69333 95.207 4.208 94.143 4.208C93.079 4.208 92.239 4.69333 91.623 5.664C91.007 6.616 90.699 8.128 90.699 10.2C90.699 12.272 91.007 13.7933 91.623 14.764C92.239 15.716 93.079 16.192 94.143 16.192ZM108.54 10.144C107.606 10.144 106.776 9.92933 106.048 9.5C105.32 9.052 104.75 8.44533 104.34 7.68C103.948 6.91467 103.752 6.056 103.752 5.104C103.752 4.152 103.948 3.29333 104.34 2.528C104.75 1.76267 105.32 1.16533 106.048 0.735999C106.776 0.288 107.606 0.0639997 108.54 0.0639997C109.473 0.0639997 110.304 0.288 111.032 0.735999C111.76 1.16533 112.32 1.76267 112.712 2.528C113.122 3.29333 113.328 4.152 113.328 5.104C113.328 6.056 113.122 6.91467 112.712 7.68C112.32 8.44533 111.76 9.052 111.032 9.5C110.304 9.92933 109.473 10.144 108.54 10.144ZM118.9 0.399999H123.1L111.06 20H106.86L118.9 0.399999ZM108.54 6.98C108.95 6.98 109.296 6.82133 109.576 6.504C109.874 6.18667 110.024 5.72 110.024 5.104C110.024 4.488 109.874 4.02133 109.576 3.704C109.296 3.38667 108.95 3.228 108.54 3.228C108.129 3.228 107.774 3.38667 107.476 3.704C107.196 4.00267 107.056 4.46933 107.056 5.104C107.056 5.73867 107.196 6.21467 107.476 6.532C107.774 6.83067 108.129 6.98 108.54 6.98ZM121.812 20.336C120.878 20.336 120.048 20.1213 119.32 19.692C118.592 19.244 118.022 18.6373 117.612 17.872C117.22 17.1067 117.024 16.248 117.024 15.296C117.024 14.344 117.22 13.4853 117.612 12.72C118.022 11.9547 118.592 11.3573 119.32 10.928C120.048 10.48 120.878 10.256 121.812 10.256C122.745 10.256 123.576 10.48 124.304 10.928C125.032 11.3573 125.592 11.9547 125.984 12.72C126.394 13.4853 126.6 14.344 126.6 15.296C126.6 16.248 126.394 17.1067 125.984 17.872C125.592 18.6373 125.032 19.244 124.304 19.692C123.576 20.1213 122.745 20.336 121.812 20.336ZM121.812 17.172C122.222 17.172 122.568 17.0133 122.848 16.696C123.146 16.3787 123.296 15.912 123.296 15.296C123.296 14.68 123.146 14.2133 122.848 13.896C122.568 13.5787 122.222 13.42 121.812 13.42C121.401 13.42 121.046 13.5787 120.748 13.896C120.468 14.1947 120.328 14.6613 120.328 15.296C120.328 15.9307 120.468 16.4067 120.748 16.724C121.046 17.0227 121.401 17.172 121.812 17.172ZM6.67644 52.336C5.55644 52.336 4.5391 52.056 3.62444 51.496C2.70977 50.936 1.98177 50.1333 1.44044 49.088C0.917771 48.0427 0.656438 46.82 0.656438 45.42C0.656438 43.8893 0.936438 42.5827 1.49644 41.5C2.0751 40.3987 2.8311 39.568 3.76444 39.008C4.71644 38.448 5.7431 38.168 6.84444 38.168C7.57244 38.168 8.30044 38.308 9.02844 38.588C9.75644 38.868 10.3818 39.3253 10.9044 39.96V31.84H15.1044L15.1044 52H10.9044V50.404H10.3444C9.98977 51.076 9.48577 51.5707 8.83244 51.888C8.19777 52.1867 7.4791 52.336 6.67644 52.336ZM7.90844 48.5C8.74844 48.5 9.45777 48.2293 10.0364 47.688C10.6151 47.1467 10.9044 46.3347 10.9044 45.252C10.9044 44.1693 10.6151 43.3573 10.0364 42.816C9.45777 42.2747 8.74844 42.004 7.90844 42.004C7.06844 42.004 6.3591 42.2747 5.78044 42.816C5.20177 43.3573 4.91244 44.1693 4.91244 45.252C4.91244 46.3347 5.20177 47.1467 5.78044 47.688C6.3591 48.2293 7.06844 48.5 7.90844 48.5ZM24.6369 52.336C23.2929 52.336 22.0889 52.0373 21.0249 51.44C19.9609 50.824 19.1302 49.9747 18.5329 48.892C17.9356 47.8093 17.6369 46.596 17.6369 45.252C17.6369 43.908 17.9262 42.704 18.5049 41.64C19.1022 40.5573 19.9329 39.708 20.9969 39.092C22.0609 38.476 23.2836 38.168 24.6649 38.168C25.9529 38.168 27.1009 38.448 28.1089 39.008C29.1169 39.5493 29.9009 40.324 30.4609 41.332C31.0396 42.3213 31.3289 43.4507 31.3289 44.72V46.344H21.8369C22.0049 47.128 22.3316 47.716 22.8169 48.108C23.3209 48.5 23.9089 48.696 24.5809 48.696C25.1222 48.696 25.5982 48.5933 26.0089 48.388C26.4196 48.164 26.7089 47.8747 26.8769 47.52H31.0209C30.6476 48.9387 29.8822 50.096 28.7249 50.992C27.5862 51.888 26.2236 52.336 24.6369 52.336ZM27.2969 43.488C27.2036 42.9093 26.9236 42.4427 26.4569 42.088C25.9902 41.7147 25.4022 41.528 24.6929 41.528C24.0582 41.528 23.5076 41.696 23.0409 42.032C22.5742 42.368 22.2196 42.8533 21.9769 43.488H27.2969ZM40.5002 52C37.1402 52 35.4602 50.3013 35.4602 46.904V42.34H32.9402V38.504H35.4602V34.864H39.6602V38.504H43.6642V42.34H39.6602V46.4C39.6602 47.4827 40.2202 48.024 41.3402 48.024H43.3842V52H40.5002ZM52.4728 52.336C51.1288 52.336 49.9248 52.0373 48.8608 51.44C47.7968 50.824 46.9662 49.9747 46.3688 48.892C45.7715 47.8093 45.4728 46.596 45.4728 45.252C45.4728 43.908 45.7622 42.704 46.3408 41.64C46.9382 40.5573 47.7688 39.708 48.8328 39.092C49.8968 38.476 51.1195 38.168 52.5008 38.168C53.7888 38.168 54.9368 38.448 55.9448 39.008C56.9528 39.5493 57.7368 40.324 58.2968 41.332C58.8755 42.3213 59.1648 43.4507 59.1648 44.72V46.344H49.6728C49.8408 47.128 50.1675 47.716 50.6528 48.108C51.1568 48.5 51.7448 48.696 52.4168 48.696C52.9582 48.696 53.4342 48.5933 53.8448 48.388C54.2555 48.164 54.5448 47.8747 54.7128 47.52H58.8568C58.4835 48.9387 57.7182 50.096 56.5608 50.992C55.4222 51.888 54.0595 52.336 52.4728 52.336ZM55.1328 43.488C55.0395 42.9093 54.7595 42.4427 54.2928 42.088C53.8262 41.7147 53.2382 41.528 52.5288 41.528C51.8942 41.528 51.3435 41.696 50.8768 42.032C50.4102 42.368 50.0555 42.8533 49.8128 43.488H55.1328ZM68.1122 52.336C66.7868 52.336 65.5922 52.0373 64.5282 51.44C63.4828 50.824 62.6615 49.9747 62.0642 48.892C61.4668 47.8093 61.1682 46.596 61.1682 45.252C61.1682 43.908 61.4668 42.6947 62.0642 41.612C62.6615 40.5293 63.4828 39.6893 64.5282 39.092C65.5922 38.476 66.7868 38.168 68.1122 38.168C69.2135 38.168 70.2308 38.392 71.1642 38.84C72.0975 39.2693 72.8628 39.8947 73.4602 40.716C74.0762 41.5187 74.4588 42.4613 74.6082 43.544H70.4642C70.2962 42.9467 69.9975 42.508 69.5682 42.228C69.1575 41.948 68.6535 41.808 68.0562 41.808C67.2535 41.808 66.5815 42.1067 66.0402 42.704C65.5175 43.3013 65.2562 44.1507 65.2562 45.252C65.2562 46.3533 65.5175 47.2027 66.0402 47.8C66.5815 48.3973 67.2535 48.696 68.0562 48.696C68.6535 48.696 69.1575 48.556 69.5682 48.276C69.9975 47.996 70.2962 47.5573 70.4642 46.96H74.6082C74.4588 48.0427 74.0762 48.9947 73.4602 49.816C72.8628 50.6187 72.0975 51.244 71.1642 51.692C70.2308 52.1213 69.2135 52.336 68.1122 52.336ZM83.8401 52C80.4801 52 78.8001 50.3013 78.8001 46.904V42.34H76.2801V38.504H78.8001L78.8001 34.864H83.0001L83.0001 38.504H87.0041V42.34H83.0001V46.4C83.0001 47.4827 83.5601 48.024 84.6801 48.024H86.7241V52H83.8401ZM89.8076 31.84H94.2316V36.264H89.8076V31.84ZM89.9196 38.504H94.1196V52H89.9196V38.504ZM103.8 52.336C102.4 52.336 101.158 52.0187 100.076 51.384C98.993 50.7493 98.153 49.9 97.5557 48.836C96.977 47.7533 96.6877 46.5587 96.6877 45.252C96.6877 43.9453 96.977 42.76 97.5557 41.696C98.153 40.6133 98.993 39.7547 100.076 39.12C101.158 38.4853 102.4 38.168 103.8 38.168C105.2 38.168 106.441 38.4853 107.524 39.12C108.606 39.7547 109.437 40.6133 110.016 41.696C110.613 42.76 110.912 43.9453 110.912 45.252C110.912 46.5587 110.613 47.7533 110.016 48.836C109.437 49.9 108.606 50.7493 107.524 51.384C106.441 52.0187 105.2 52.336 103.8 52.336ZM103.8 48.472C104.658 48.472 105.358 48.1827 105.9 47.604C106.441 47.0067 106.712 46.2227 106.712 45.252C106.712 44.2813 106.441 43.5067 105.9 42.928C105.358 42.3307 104.658 42.032 103.8 42.032C102.941 42.032 102.241 42.3307 101.7 42.928C101.158 43.5067 100.888 44.2813 100.888 45.252C100.888 46.2227 101.158 47.0067 101.7 47.604C102.241 48.1827 102.941 48.472 103.8 48.472ZM113.266 38.504H117.466V39.988H118.026C118.343 39.484 118.819 39.0547 119.454 38.7C120.107 38.3453 120.91 38.168 121.862 38.168C123.225 38.168 124.382 38.56 125.334 39.344C126.286 40.128 126.762 41.4533 126.762 43.32V52H122.562V44.804C122.562 43.9453 122.347 43.32 121.918 42.928C121.507 42.536 120.938 42.34 120.21 42.34C119.351 42.34 118.679 42.62 118.194 43.18C117.709 43.7213 117.466 44.5333 117.466 45.616V52H113.266V38.504ZM30.4443 63.84H34.8683V68.264H30.4443V63.84ZM30.5563 70.504H34.7563V84H30.5563V70.504ZM37.6604 70.504H41.8604V71.988H42.4204C42.7377 71.484 43.2137 71.0547 43.8484 70.7C44.5017 70.3453 45.3044 70.168 46.2564 70.168C47.6191 70.168 48.7764 70.56 49.7284 71.344C50.6804 72.128 51.1564 73.4533 51.1564 75.32V84H46.9564V76.804C46.9564 75.9453 46.7417 75.32 46.3124 74.928C45.9017 74.536 45.3324 74.34 44.6044 74.34C43.7457 74.34 43.0737 74.62 42.5884 75.18C42.1031 75.7213 41.8604 76.5333 41.8604 77.616V84H37.6604V70.504ZM66.7229 84C63.3629 84 61.6829 82.3013 61.6829 78.904V74.34H59.1629V70.504H61.6829V66.864H65.8829V70.504H69.8869V74.34H65.8829V78.4C65.8829 79.4827 66.4429 80.024 67.5629 80.024H69.6069V84H66.7229ZM78.6955 84.336C77.3515 84.336 76.1475 84.0373 75.0835 83.44C74.0195 82.824 73.1888 81.9747 72.5915 80.892C71.9942 79.8093 71.6955 78.596 71.6955 77.252C71.6955 75.908 71.9848 74.704 72.5635 73.64C73.1608 72.5573 73.9915 71.708 75.0555 71.092C76.1195 70.476 77.3422 70.168 78.7235 70.168C80.0115 70.168 81.1595 70.448 82.1675 71.008C83.1755 71.5493 83.9595 72.324 84.5195 73.332C85.0982 74.3213 85.3875 75.4507 85.3875 76.72V78.344H75.8955C76.0635 79.128 76.3902 79.716 76.8755 80.108C77.3795 80.5 77.9675 80.696 78.6395 80.696C79.1808 80.696 79.6568 80.5933 80.0675 80.388C80.4782 80.164 80.7675 79.8747 80.9355 79.52H85.0795C84.7062 80.9387 83.9408 82.096 82.7835 82.992C81.6448 83.888 80.2822 84.336 78.6955 84.336ZM81.3555 75.488C81.2622 74.9093 80.9822 74.4427 80.5155 74.088C80.0488 73.7147 79.4608 73.528 78.7515 73.528C78.1168 73.528 77.5662 73.696 77.0995 74.032C76.6328 74.368 76.2782 74.8533 76.0355 75.488H81.3555ZM93.6068 84.336C91.6655 84.336 90.1441 83.888 89.0428 82.992C87.9415 82.0773 87.3535 80.92 87.2788 79.52H91.5068C91.5628 79.912 91.7868 80.2387 92.1788 80.5C92.5895 80.7427 93.1121 80.864 93.7468 80.864C94.3815 80.864 94.8668 80.7707 95.2028 80.584C95.5575 80.3787 95.7348 80.108 95.7348 79.772C95.7348 79.492 95.6415 79.2867 95.4548 79.156C95.2681 79.0253 94.9321 78.932 94.4468 78.876L91.8148 78.568C88.9961 78.2507 87.5868 76.9627 87.5868 74.704C87.5868 73.8453 87.8201 73.0707 88.2868 72.38C88.7721 71.6893 89.4628 71.148 90.3588 70.756C91.2735 70.364 92.3561 70.168 93.6068 70.168C95.4548 70.168 96.8641 70.56 97.8348 71.344C98.8055 72.1093 99.3375 73.1547 99.4308 74.48H95.4548C95.4175 74.2 95.2215 73.9667 94.8668 73.78C94.5121 73.5933 94.0641 73.5 93.5228 73.5C92.9815 73.5 92.5521 73.5933 92.2348 73.78C91.9361 73.948 91.7868 74.1813 91.7868 74.48C91.7868 74.76 91.9268 74.984 92.2068 75.152C92.4868 75.3013 92.9721 75.4133 93.6628 75.488L96.0148 75.74C97.3028 75.8707 98.2828 76.244 98.9548 76.86C99.6268 77.4573 99.9628 78.3533 99.9628 79.548C99.9628 81.0227 99.4028 82.1893 98.2828 83.048C97.1628 83.9067 95.6041 84.336 93.6068 84.336ZM108.86 84C105.5 84 103.82 82.3013 103.82 78.904V74.34H101.3V70.504H103.82V66.864H108.02V70.504H112.024V74.34H108.02V78.4C108.02 79.4827 108.58 80.024 109.7 80.024H111.744V84H108.86ZM120.595 84.336C118.654 84.336 117.132 83.888 116.031 82.992C114.93 82.0773 114.342 80.92 114.267 79.52H118.495C118.551 79.912 118.775 80.2387 119.167 80.5C119.578 80.7427 120.1 80.864 120.735 80.864C121.37 80.864 121.855 80.7707 122.191 80.584C122.546 80.3787 122.723 80.108 122.723 79.772C122.723 79.492 122.63 79.2867 122.443 79.156C122.256 79.0253 121.92 78.932 121.435 78.876L118.803 78.568C115.984 78.2507 114.575 76.9627 114.575 74.704C114.575 73.8453 114.808 73.0707 115.275 72.38C115.76 71.6893 116.451 71.148 117.347 70.756C118.262 70.364 119.344 70.168 120.595 70.168C122.443 70.168 123.852 70.56 124.823 71.344C125.794 72.1093 126.326 73.1547 126.419 74.48H122.443C122.406 74.2 122.21 73.9667 121.855 73.78C121.5 73.5933 121.052 73.5 120.511 73.5C119.97 73.5 119.54 73.5933 119.223 73.78C118.924 73.948 118.775 74.1813 118.775 74.48C118.775 74.76 118.915 74.984 119.195 75.152C119.475 75.3013 119.96 75.4133 120.651 75.488L123.003 75.74C124.291 75.8707 125.271 76.244 125.943 76.86C126.615 77.4573 126.951 78.3533 126.951 79.548C126.951 81.0227 126.391 82.1893 125.271 83.048C124.151 83.9067 122.592 84.336 120.595 84.336Z" fill="#23D1AE"/>
</svg>
