<svg width="118" height="40" viewBox="0 0 118 40" fill="none" xmlns="http://www.w3.org/2000/svg">
<path d="M11.2434 31.44H26.4714V39H1.79336V31.926C3.41336 31.638 4.70936 31.026 5.68136 30.09C6.68936 29.118 7.19336 27.858 7.19336 26.31C7.19336 25.518 7.08536 24.744 6.86936 23.988H0.49736V18.588H4.33136C3.14336 16.284 2.54936 14.106 2.54936 12.054C2.54936 10.074 3.03536 8.202 4.00736 6.438C4.97936 4.674 6.38336 3.252 8.21936 2.172C10.0914 1.092 12.2874 0.551999 14.8074 0.551999C17.2554 0.551999 19.3434 1.056 21.0714 2.064C22.8354 3.036 24.1674 4.35 25.0674 6.006C26.0034 7.662 26.5254 9.48 26.6334 11.46H18.3714C18.2634 10.38 17.8674 9.552 17.1834 8.976C16.5354 8.4 15.7434 8.112 14.8074 8.112C13.6914 8.112 12.8094 8.472 12.1614 9.192C11.5134 9.876 11.1894 10.92 11.1894 12.324C11.1894 13.296 11.3334 14.232 11.6214 15.132C11.9094 16.032 12.3414 17.184 12.9174 18.588H23.2314V23.988H14.3214V24.528C14.3214 25.68 14.1054 26.724 13.6734 27.66C13.2414 28.56 12.4314 29.46 11.2434 30.36V31.44ZM43.2282 39.648C40.4562 39.648 38.0622 39.09 36.0462 37.974C34.0662 36.822 32.5542 35.328 31.5102 33.492C30.4662 31.62 29.8902 29.604 29.7822 27.444H38.0982C38.2422 28.956 38.7822 30.108 39.7182 30.9C40.6902 31.692 41.8602 32.088 43.2282 32.088C44.6322 32.088 45.8022 31.602 46.7382 30.63C47.7102 29.658 48.1962 28.326 48.1962 26.634C48.1962 25.122 47.6922 23.898 46.6842 22.962C45.7122 22.026 44.1462 21.558 41.9862 21.558H37.6122V14.754L44.2002 8.76H31.4022V1.2H54.6222V7.95L47.8722 14.16V15.24C49.4922 15.528 50.9682 16.194 52.3002 17.238C53.6322 18.246 54.6762 19.578 55.4322 21.234C56.2242 22.854 56.6202 24.672 56.6202 26.688C56.6202 28.884 56.1342 30.972 55.1622 32.952C54.1902 34.932 52.6962 36.552 50.6802 37.812C48.6642 39.036 46.1802 39.648 43.2282 39.648ZM72.3962 39.648C69.7322 39.648 67.4282 39.108 65.4842 38.028C63.5762 36.912 62.1002 35.436 61.0562 33.6C60.0482 31.728 59.5082 29.712 59.4362 27.552H67.7522C67.8962 28.884 68.4542 29.982 69.4262 30.846C70.3982 31.674 71.5142 32.088 72.7742 32.088C74.0702 32.088 75.1682 31.566 76.0683 30.522C76.9683 29.478 77.4183 27.948 77.4183 25.932C77.4183 23.988 76.9862 22.476 76.1222 21.396C75.2582 20.316 74.1422 19.776 72.7742 19.776C71.7662 19.776 70.8662 20.046 70.0742 20.586C69.3182 21.09 68.7602 21.81 68.4002 22.746H60.5162L61.5422 1.2H82.5483V8.76H69.2642L68.9402 14.484H70.0202C71.3162 13.044 73.1522 12.324 75.5283 12.324C77.6163 12.324 79.4523 12.882 81.0363 13.998C82.6203 15.114 83.8443 16.662 84.7082 18.642C85.5722 20.622 86.0042 22.854 86.0042 25.338C86.0042 28.146 85.4462 30.63 84.3303 32.79C83.2143 34.95 81.6303 36.642 79.5782 37.866C77.5262 39.054 75.1322 39.648 72.3962 39.648ZM87.4422 35.208H91.2342V39H87.4422V35.208ZM98.0264 21.912C99.2264 21.912 100.258 22.168 101.122 22.68C102.002 23.176 102.666 23.848 103.114 24.696C103.578 25.528 103.81 26.44 103.81 27.432C103.81 28.248 103.666 29.032 103.378 29.784C103.106 30.536 102.674 31.368 102.082 32.28L97.6664 39H93.5384L97.3064 33.264V32.784H97.2584C96.1864 32.784 95.2584 32.552 94.4744 32.088C93.6904 31.624 93.0904 31 92.6744 30.216C92.2584 29.416 92.0504 28.552 92.0504 27.624C92.0504 26.632 92.2824 25.704 92.7464 24.84C93.2104 23.96 93.8904 23.256 94.7864 22.728C95.6984 22.184 96.7784 21.912 98.0264 21.912ZM97.9544 25.272C97.2824 25.272 96.7544 25.496 96.3704 25.944C95.9864 26.376 95.7944 26.896 95.7944 27.504C95.7944 28.112 95.9864 28.64 96.3704 29.088C96.7544 29.52 97.2824 29.736 97.9544 29.736C98.6264 29.736 99.1544 29.52 99.5384 29.088C99.9224 28.64 100.114 28.112 100.114 27.504C100.114 26.896 99.9224 26.376 99.5384 25.944C99.1544 25.496 98.6264 25.272 97.9544 25.272ZM111.409 21.912C112.609 21.912 113.641 22.168 114.505 22.68C115.385 23.176 116.049 23.848 116.497 24.696C116.961 25.528 117.193 26.44 117.193 27.432C117.193 28.248 117.049 29.032 116.761 29.784C116.489 30.536 116.057 31.368 115.465 32.28L111.049 39H106.921L110.689 33.264V32.784H110.641C109.569 32.784 108.641 32.552 107.857 32.088C107.073 31.624 106.473 31 106.057 30.216C105.641 29.416 105.433 28.552 105.433 27.624C105.433 26.632 105.665 25.704 106.129 24.84C106.593 23.96 107.273 23.256 108.169 22.728C109.081 22.184 110.161 21.912 111.409 21.912ZM111.337 25.272C110.665 25.272 110.137 25.496 109.753 25.944C109.369 26.376 109.177 26.896 109.177 27.504C109.177 28.112 109.369 28.64 109.753 29.088C110.137 29.52 110.665 29.736 111.337 29.736C112.009 29.736 112.537 29.52 112.921 29.088C113.305 28.64 113.497 28.112 113.497 27.504C113.497 26.896 113.305 26.376 112.921 25.944C112.537 25.496 112.009 25.272 111.337 25.272Z" fill="#1D1D1B"/>
</svg>
