<svg width="79" height="16" viewBox="0 0 79 16" fill="none" xmlns="http://www.w3.org/2000/svg">
<path d="M6.16 12.192C5.17867 12.192 4.272 11.9627 3.44 11.504C2.608 11.0453 1.94133 10.3787 1.44 9.504C0.949333 8.62933 0.704 7.59467 0.704 6.4C0.704 5.20533 0.949333 4.17067 1.44 3.296C1.94133 2.42133 2.608 1.75467 3.44 1.296C4.272 0.837333 5.17867 0.608 6.16 0.608C7.14133 0.608 8.04267 0.837333 8.864 1.296C9.696 1.75467 10.3573 2.42133 10.848 3.296C11.3493 4.17067 11.6 5.20533 11.6 6.4C11.6 7.59467 11.3493 8.62933 10.848 9.504C10.3573 10.3787 9.696 11.0453 8.864 11.504C8.04267 11.9627 7.14133 12.192 6.16 12.192ZM6.16 11.024C6.94933 11.024 7.664 10.8427 8.304 10.48C8.95467 10.1067 9.46667 9.57333 9.84 8.88C10.2133 8.176 10.4 7.34933 10.4 6.4C10.4 5.45067 10.2133 4.62933 9.84 3.936C9.46667 3.232 8.95467 2.69867 8.304 2.336C7.664 1.96267 6.94933 1.776 6.16 1.776C5.37067 1.776 4.65067 1.96267 4 2.336C3.36 2.69867 2.85333 3.232 2.48 3.936C2.10667 4.62933 1.92 5.45067 1.92 6.4C1.92 7.34933 2.10667 8.176 2.48 8.88C2.85333 9.57333 3.36 10.1067 4 10.48C4.65067 10.8427 5.37067 11.024 6.16 11.024ZM16.7609 12.192C16.0142 12.192 15.3529 12.0213 14.7769 11.68C14.2009 11.328 13.7529 10.848 13.4329 10.24C13.1129 9.62133 12.9529 8.92267 12.9529 8.144C12.9529 7.36533 13.1129 6.672 13.4329 6.064C13.7529 5.44533 14.2009 4.96533 14.7769 4.624C15.3529 4.272 16.0142 4.096 16.7609 4.096C17.6569 4.096 18.4089 4.336 19.0169 4.816C19.6249 5.296 20.0035 5.94133 20.1529 6.752H18.9849C18.8462 6.29333 18.5849 5.92533 18.2009 5.648C17.8275 5.36 17.3475 5.216 16.7609 5.216C15.9822 5.216 15.3475 5.47733 14.8569 6C14.3662 6.52267 14.1209 7.23733 14.1209 8.144C14.1209 9.072 14.3715 9.792 14.8729 10.304C15.3742 10.816 16.0035 11.072 16.7609 11.072C17.3475 11.072 17.8275 10.9333 18.2009 10.656C18.5849 10.368 18.8462 9.99467 18.9849 9.536H20.1529C20.0035 10.3467 19.6249 10.992 19.0169 11.472C18.4089 11.952 17.6569 12.192 16.7609 12.192ZM24.9081 12C24.2148 12 23.6655 11.8133 23.2601 11.44C22.8655 11.056 22.6681 10.5013 22.6681 9.776V5.376H20.9561V4.288H22.6681V2.208H23.8361V4.288H26.4121V5.376H23.8361V9.52C23.8361 10 23.9428 10.352 24.1561 10.576C24.3801 10.8 24.7375 10.912 25.2281 10.912H26.3801V12H24.9081ZM32.9795 0.799999H34.1475L28.6755 15.52H27.5075L32.9795 0.799999ZM35.4288 0.799999H36.9488L42.1968 9.024C42.4954 9.49333 42.7141 9.86667 42.8528 10.144H43.0288V0.799999H44.2128V12H42.6927L37.5088 3.888C37.3488 3.64267 37.1088 3.23733 36.7888 2.672H36.6128V12H35.4288V0.799999ZM49.7639 12.192C48.9852 12.192 48.2972 12.0107 47.6999 11.648C47.1025 11.2853 46.6385 10.8 46.3079 10.192C45.9879 9.57333 45.8279 8.89067 45.8279 8.144C45.8279 7.39733 45.9879 6.72 46.3079 6.112C46.6385 5.49333 47.1025 5.00267 47.6999 4.64C48.2972 4.27733 48.9852 4.096 49.7639 4.096C50.5425 4.096 51.2252 4.27733 51.8119 4.64C52.4092 5.00267 52.8679 5.49333 53.1879 6.112C53.5185 6.72 53.6839 7.39733 53.6839 8.144C53.6839 8.89067 53.5185 9.57333 53.1879 10.192C52.8679 10.8 52.4092 11.2853 51.8119 11.648C51.2252 12.0107 50.5425 12.192 49.7639 12.192ZM49.7639 11.056C50.2439 11.056 50.6919 10.944 51.1079 10.72C51.5239 10.4853 51.8545 10.1493 52.0999 9.712C52.3559 9.27467 52.4839 8.752 52.4839 8.144C52.4839 7.536 52.3559 7.01333 52.0999 6.576C51.8545 6.13867 51.5239 5.808 51.1079 5.584C50.6919 5.34933 50.2439 5.232 49.7639 5.232C49.2839 5.232 48.8359 5.34933 48.4199 5.584C48.0039 5.808 47.6679 6.13867 47.4119 6.576C47.1559 7.01333 47.0279 7.536 47.0279 8.144C47.0279 8.752 47.1559 9.27467 47.4119 9.712C47.6679 10.1493 48.0039 10.4853 48.4199 10.72C48.8359 10.944 49.2839 11.056 49.7639 11.056ZM54.2411 4.288H55.5371L57.7291 10.176C57.8251 10.4533 57.8891 10.64 57.9211 10.736H58.0971C58.1291 10.64 58.1931 10.4533 58.2891 10.176L60.4811 4.288H61.7771L58.8331 12H57.1851L54.2411 4.288ZM68.0901 2.336H67.8981L65.8661 3.52V2.288L68.3141 0.799999H69.2581V12H68.0901V2.336ZM74.3944 0.608C75.1304 0.608 75.7704 0.762666 76.3144 1.072C76.869 1.38133 77.2904 1.808 77.5784 2.352C77.8664 2.896 78.0104 3.49867 78.0104 4.16C78.0104 4.704 77.9197 5.23733 77.7384 5.76C77.557 6.28267 77.2797 6.82667 76.9064 7.392L73.8344 12H72.4584L75.2904 7.76V7.584C75.0024 7.744 74.613 7.824 74.1224 7.824C73.4397 7.824 72.837 7.66933 72.3144 7.36C71.8024 7.04 71.4077 6.61867 71.1304 6.096C70.8637 5.56267 70.7304 4.98133 70.7304 4.352C70.7304 3.712 70.8637 3.10933 71.1304 2.544C71.4077 1.968 71.8237 1.504 72.3784 1.152C72.933 0.789333 73.605 0.608 74.3944 0.608ZM74.3784 1.76C73.589 1.76 72.981 2.00533 72.5544 2.496C72.1384 2.976 71.9304 3.55733 71.9304 4.24C71.9304 4.66667 72.021 5.072 72.2024 5.456C72.3837 5.82933 72.6557 6.13333 73.0184 6.368C73.3917 6.60267 73.845 6.72 74.3784 6.72C75.1677 6.72 75.7704 6.47467 76.1864 5.984C76.6024 5.49333 76.8104 4.90667 76.8104 4.224C76.8104 3.54133 76.6024 2.96 76.1864 2.48C75.7704 2 75.1677 1.76 74.3784 1.76Z" fill="white"/>
</svg>
