<svg width="58" height="19" viewBox="0 0 58 19" fill="none" xmlns="http://www.w3.org/2000/svg">
<path d="M11.336 16.416V18H0.872V16.2C2.6 14.872 3.464 13.576 3.464 12.312C3.464 11.816 3.312 11.224 3.008 10.536H0.032V9.096H2.312C2.024 8.472 1.8 7.896 1.64 7.368C1.48 6.84 1.4 6.272 1.4 5.664C1.4 4.736 1.6 3.912 2 3.192C2.4 2.472 2.968 1.912 3.704 1.512C4.44 1.112 5.288 0.912 6.248 0.912C7.256 0.912 8.12 1.128 8.84 1.56C9.56 1.976 10.112 2.536 10.496 3.24C10.88 3.944 11.096 4.712 11.144 5.544H9.416C9.144 3.608 8.088 2.64 6.248 2.64C5.144 2.64 4.352 2.936 3.872 3.528C3.408 4.12 3.176 4.824 3.176 5.64C3.176 6.184 3.264 6.712 3.44 7.224C3.616 7.72 3.888 8.344 4.256 9.096H9.752V10.536H4.856C5.048 11.112 5.144 11.632 5.144 12.096C5.144 13.6 4.464 14.944 3.104 16.128V16.416H11.336ZM19.4533 18.288C18.2693 18.288 17.2453 18.048 16.3813 17.568C15.5333 17.072 14.8853 16.416 14.4373 15.6C13.9893 14.768 13.7493 13.856 13.7173 12.864H15.4693C15.5653 14.096 15.9973 15.04 16.7653 15.696C17.5333 16.336 18.4293 16.656 19.4533 16.656C20.1573 16.656 20.7973 16.496 21.3733 16.176C21.9493 15.84 22.3973 15.384 22.7173 14.808C23.0533 14.216 23.2213 13.544 23.2213 12.792C23.2213 11.608 22.8453 10.688 22.0933 10.032C21.3413 9.36 20.3093 9.024 18.9973 9.024H17.3653V7.968L21.8053 2.832H14.3173V1.2H23.9413V2.664L19.9813 7.32V7.608C20.9413 7.624 21.7973 7.84 22.5493 8.256C23.3173 8.672 23.9173 9.272 24.3493 10.056C24.7813 10.824 24.9973 11.728 24.9973 12.768C24.9973 13.728 24.7893 14.632 24.3733 15.48C23.9573 16.312 23.3333 16.992 22.5013 17.52C21.6693 18.032 20.6533 18.288 19.4533 18.288ZM34.3777 13.368H26.7937V12L34.3777 1.2H36.1057V11.784H38.7457V13.368H36.1057V18H34.3777V13.368ZM34.3777 11.784V4.152H34.0897C33.9617 4.376 33.7937 4.648 33.5857 4.968L28.8337 11.784H34.3777ZM40.2766 16.672H41.6046V18H40.2766V16.672ZM45.7616 6.608C46.4976 6.608 47.1376 6.76267 47.6816 7.072C48.2362 7.38133 48.6576 7.808 48.9456 8.352C49.2336 8.896 49.3776 9.49867 49.3776 10.16C49.3776 10.704 49.2869 11.2373 49.1056 11.76C48.9242 12.2827 48.6469 12.8267 48.2736 13.392L45.2016 18H43.8256L46.6576 13.76V13.584C46.3696 13.744 45.9802 13.824 45.4896 13.824C44.8069 13.824 44.2042 13.6693 43.6816 13.36C43.1696 13.04 42.7749 12.6187 42.4976 12.096C42.2309 11.5627 42.0976 10.9813 42.0976 10.352C42.0976 9.712 42.2309 9.10933 42.4976 8.544C42.7749 7.968 43.1909 7.504 43.7456 7.152C44.3002 6.78933 44.9722 6.608 45.7616 6.608ZM45.7456 7.76C44.9562 7.76 44.3482 8.00533 43.9216 8.496C43.5056 8.976 43.2976 9.55733 43.2976 10.24C43.2976 10.6667 43.3882 11.072 43.5696 11.456C43.7509 11.8293 44.0229 12.1333 44.3856 12.368C44.7589 12.6027 45.2122 12.72 45.7456 12.72C46.5349 12.72 47.1376 12.4747 47.5536 11.984C47.9696 11.4933 48.1776 10.9067 48.1776 10.224C48.1776 9.54133 47.9696 8.96 47.5536 8.48C47.1376 8 46.5349 7.76 45.7456 7.76ZM54.1678 6.608C54.9038 6.608 55.5438 6.76267 56.0878 7.072C56.6425 7.38133 57.0638 7.808 57.3518 8.352C57.6398 8.896 57.7838 9.49867 57.7838 10.16C57.7838 10.704 57.6931 11.2373 57.5118 11.76C57.3305 12.2827 57.0531 12.8267 56.6798 13.392L53.6078 18H52.2318L55.0638 13.76V13.584C54.7758 13.744 54.3865 13.824 53.8958 13.824C53.2131 13.824 52.6105 13.6693 52.0878 13.36C51.5758 13.04 51.1811 12.6187 50.9038 12.096C50.6371 11.5627 50.5038 10.9813 50.5038 10.352C50.5038 9.712 50.6371 9.10933 50.9038 8.544C51.1811 7.968 51.5971 7.504 52.1518 7.152C52.7065 6.78933 53.3785 6.608 54.1678 6.608ZM54.1518 7.76C53.3625 7.76 52.7545 8.00533 52.3278 8.496C51.9118 8.976 51.7038 9.55733 51.7038 10.24C51.7038 10.6667 51.7945 11.072 51.9758 11.456C52.1571 11.8293 52.4291 12.1333 52.7918 12.368C53.1651 12.6027 53.6185 12.72 54.1518 12.72C54.9411 12.72 55.5438 12.4747 55.9598 11.984C56.3758 11.4933 56.5838 10.9067 56.5838 10.224C56.5838 9.54133 56.3758 8.96 55.9598 8.48C55.5438 8 54.9411 7.76 54.1518 7.76Z" fill="#1D1D1B"/>
</svg>
