<svg width="80" height="89" viewBox="0 0 80 89" fill="none" xmlns="http://www.w3.org/2000/svg">
<path d="M7.26444 19.3876L7.26444 19.3876L7.2587 19.391C4.00606 21.2937 2 24.8015 2 28.5914V60.4086C2 64.1935 4.00221 67.7199 7.26444 69.6124C7.26466 69.6125 7.26488 69.6126 7.2651 69.6128L34.7913 85.5927C38.0221 87.4689 41.9769 87.4691 45.2078 85.5932C45.2081 85.5931 45.2084 85.5929 45.2087 85.5927L72.7349 69.6258C75.9975 67.7334 78 64.2068 78 60.4217V28.5914C78 24.8063 75.9975 21.2797 72.7349 19.3872L45.2087 3.40729C45.2086 3.40724 45.2085 3.40719 45.2084 3.40714C41.9775 1.53096 38.0225 1.53095 34.7916 3.40714C34.7915 3.40719 34.7914 3.40724 34.7913 3.40729L7.26444 19.3876Z" fill="#00A88E" stroke="white" stroke-width="4"/>
</svg>
